# AST/ASF file generated using VICON BodyLanguage
# -----------------------------------------------
:version 1.10
:name VICON
:units
  mass 1.0
  length 0.45
  angle deg
:documentation
   .ast/.asf automatically generated from VICON data using
   VICON BodyBuilder and BodyLanguage model FoxedUp or BRILLIANT.MOD
:root
   order TX TY TZ RX RY RZ
   axis XYZ
   position 0 0 0  
   orientation 0 0 0 
:bonedata
  begin
     id 1 
     name lhipjoint
     direction 0.603808 -0.713975 0.35448 
     length 2.2025 
     axis 0 0 0  XYZ
  end
  begin
     id 2 
     name lfemur
     direction 0.34202 -0.939693 0  
     length 6.55877  
     axis 0 0 20  XYZ
    dof rx ry rz
    limits (-160.0 20.0)
           (-70.0 70.0)
           (-60.0 70.0)
  end
  begin
     id 3 
     name ltibia
     direction 0.34202 -0.939693 0   
     length 6.80302   
     axis 0 0 20   XYZ
    dof rx
    limits (-10.0 170.0)
  end
  begin
     id 4 
     name lfoot
     direction 0.091848 -0.25235 0.963267   
     length 2.03446   
     axis -90 7.62852e-016 20   XYZ
    dof rx rz
    limits (-45.0 90.0)
           (-70.0 20.0)
  end
  begin
     id 5 
     name ltoes
     direction 1.53608e-011 -4.21925e-011 1   
     length 1.02033   
     axis -90 7.62852e-016 20   XYZ
    dof rx
    limits (-90.0 20.0)
  end
  begin
     id 6 
     name rhipjoint
     direction -0.587285 -0.724947 0.359928   
     length 2.16916  
     axis 0 0 0  XYZ 
  end
  begin
     id 7 
     name rfemur
     direction -0.34202 -0.939693 0   
     length 6.43173   
     axis 0 0 -20   XYZ
    dof rx ry rz
    limits (-160.0 20.0)
           (-70.0 70.0)
           (-70.0 60.0)
  end
  begin
     id 8 
     name rtibia
     direction -0.34202 -0.939693 0   
     length 6.70662   
     axis 0 0 -20   XYZ
    dof rx
    limits (-10.0 170.0)
 end
 begin
     id 9 
     name rfoot
     direction -0.11854 -0.325686 0.938018   
     length 2.0773  
     axis -90 -7.62852e-016 -20   XYZ
    dof rx rz
    limits (-45.0 90.0)
           (-20.0 70.0)
  end
  begin
     id 10 
     name rtoes
     direction -1.53547e-011 -4.21838e-011 1   
     length 1.03267   
     axis -90 -7.62852e-016 -20   XYZ
    dof rx
    limits (-90.0 20.0)
  end
  begin
     id 11 
     name lowerback
     direction -0.0286554 0.999539 0.0100613   
     length 2.08751   
     axis 0 0 0   XYZ
    dof rx ry rz
    limits (-20.0 45.0)
           (-30.0 30.0)
           (-30.0 30.0)
  end
  begin
     id 12 
     name upperback
     direction 0.0227093 0.999705 -0.00860929   
     length 2.08517   
     axis 0 0 0   XYZ
    dof rx ry rz
    limits (-20.0 45.0)
           (-30.0 30.0)
           (-30.0 30.0)
  end
  begin
     id 13 
     name thorax
     direction 0.0351627 0.999285 -0.013892   
     length 2.08412   
     axis 0 0 0   XYZ
    dof rx ry rz
    limits (-20.0 45.0)
           (-30.0 30.0)
           (-30.0 30.0)
  end
  begin
     id 14 
     name lowerneck
     direction -0.0696283 0.997344 0.0213922   
     length 1.44164   
     axis 0 0 0   XYZ
    dof rx ry rz
    limits (-20.0 45.0)
           (-30.0 30.0)
           (-30.0 30.0)
  end
  begin
     id 15 
     name upperneck
     direction 0.0531 0.990412 -0.127531   
     length 1.45022   
     axis 0 0 0   XYZ
    dof rx ry rz
    limits (-20.0 45.0)
           (-30.0 30.0)
           (-30.0 30.0)
  end
  begin
     id 16
     name head
     direction 0.0188154 0.998548 -0.0504727  
     length 1.45845  
     axis 0 0 0   XYZ
    dof rx ry rz
    limits (-20.0 45.0)
           (-30.0 30.0)
           (-30.0 30.0)
  end
  begin
     id 17 
     name lclavicle
     direction 0.961559 0.260051 0.088188  
     length 2.86057  
     axis 0 0 0   XYZ
    dof ry rz
    limits (-20.0 10.0)
           (0.0 20.0)
  end
  begin
     id 18 
     name lhumerus
     direction 1 -4.48959e-011 2.88185e-027   
     length 4.36901   
     axis 180 -30 -90   XYZ
    dof rx ry rz
    limits (-60.0 90.0)
           (-90.0 90.0)
           (-90.0 90.0)
  end
  begin
     id 19
     name lradius
     direction 1 -4.48965e-011 -3.92618e-028   
     length 3.21737   
     axis 180 -30 -90   XYZ
    dof rx
    limits (-10.0 170.0)
  end
  begin
     id 20
     name lwrist
     direction 1 -4.49037e-011 2.57246e-027   
     length 1.60869   
     axis -1.61769e-015 90 90   XYZ
    dof ry
    limits (-180.0 0.0)
 end
  begin
     id 21 
     name lhand
     direction 1 -4.48807e-011 5.12958e-027   
     length 0.564313   
     axis -3.27988e-015 90 90   XYZ
    dof rx rz
    limits (-90.0 90.0)
           (-45.0 45.0)
  end
  begin
     id 22 
     name lfingers
     direction 1 -4.48879e-011 1.02687e-026   
     length 0.454963   
     axis -6.5598e-015 90 90   XYZ
    dof rx
    limits (0.0 90.0)
  end
  begin
     id 23
     name lthumb
     direction 0.707107 -6.3475e-011 0.707107   
     length 0.653239   
     axis -90 45 2.19363e-014   XYZ
    dof rx rz
    limits (-45.0 45.0)
           (-45.0 45.0)
  end
  begin
     id 24 
     name rclavicle
     direction -0.954677 0.253915 0.155304   
     length 3.11497  
     axis 0 0 0   XYZ 
    dof ry rz
    limits (-10.0 20.0)
           (-20.0 0.0)
  end
  begin
     id 25 
     name rhumerus
     direction -1 -4.48958e-011 -8.20169e-028  
     length 4.34118   
     axis 180 30 90   XYZ
    dof rx ry rz
    limits (-90.0 60.0)
           (-90.0 90.0)
           (-90.0 90.0)
  end
  begin
     id 26 
     name rradius
     direction -1 -4.48978e-011 1.5676e-027   
     length 3.09531   
     axis 180 30 90   XYZ
    dof rx
    limits (-10.0 170.0)
  end
  begin
     id 27 
     name rwrist
     direction -1 -4.49001e-011 2.57123e-027   
     length 1.54765   
     axis -1.61769e-015 -90 -90   XYZ
    dof ry
    limits (-180.0 0.0)
  end
  begin
     id 28
     name rhand
     direction -1 -4.48847e-011 5.13225e-027   
     length 0.597446   
     axis -3.27988e-015 -90 -90   XYZ
    dof rx rz
    limits (-90.0 90.0)
           (-45.0 45.0)
  end
  begin
     id 29
     name rfingers
     direction -1 -4.49094e-011 1.02974e-026   
     length 0.481677   
     axis -6.5598e-015 -90 -90   XYZ
    dof rx
    limits (0.0 90.0)
  end
  begin
     id 30
     name rthumb
     direction -0.707107 -6.34859e-011 0.707107   
     length 0.691594   
     axis -90 -45 -2.19363e-014   XYZ
    dof rx rz
    limits (-45.0 45.0)
           (-45.0 45.0)
  end
:hierarchy
  begin
    root lhipjoint rhipjoint lowerback
    lhipjoint lfemur
    lfemur ltibia
    ltibia lfoot
    lfoot ltoes
    rhipjoint rfemur
    rfemur rtibia
    rtibia rfoot
    rfoot rtoes
    lowerback upperback
    upperback thorax
    thorax lowerneck lclavicle rclavicle
    lowerneck upperneck
    upperneck head
    lclavicle lhumerus
    lhumerus lradius
    lradius lwrist
    lwrist lhand lthumb
    lhand lfingers
    rclavicle rhumerus
    rhumerus rradius
    rradius rwrist
    rwrist rhand rthumb
    rhand rfingers
  end

#!OML:ASF I:\Acrobat_Osman\acrobat\cartwheel_test 2\Patient 1\Session 1\acrobat.ASF
:FULLY-SPECIFIED
:DEGREES
1561
root 13.769 15.349 1.80664 -173.87 -168.19 -180.923
lowerback -0.512734 0.718236 -2.05913
upperback 1.57026 0.922062 3.84814
thorax 1.80743 0.398285 5.15227
lowerneck -8.30272 -6.38737 -8.58836
upperneck 28.1316 -7.21085 -1.15719
head 10.7163 -4.34764 0.188348
rclavicle -1.09332e-014 -2.78299e-014
rhumerus -30.2317 -6.9212 -72.9453
rradius 47.7287
rwrist 2.68849
rhand -29.25 -688.869
rfingers 7.12502
rthumb -2.5932 1.16718
lclavicle -1.09332e-014 -2.78299e-014
lhumerus -215.691 190.2 262.17
lradius 86.4183
lwrist -345.205
lhand -26.4092 42.563
lfingers 7.12502
lthumb 0.150499 792.543
rfemur -9.77653 5.83865 12.5038
rtibia 35.2532
rfoot -25.4059 -13.9269
rtoes -24.4066
lfemur -21.8615 -1.91251 2.90383
ltibia 34.8564
lfoot -4.55533 27.6136
ltoes -17.8962
1562
root 13.5486 15.3707 1.6939 -173.655 -169.028 -181.116
lowerback -0.617659 0.602948 -2.05558
upperback 1.6198 0.764827 3.97676
thorax 1.93272 0.315033 5.28472
lowerneck -8.59795 -6.32597 -8.30427
upperneck 28.7899 -7.11992 -1.25629
head 11.0008 -4.29636 0.0939165
rclavicle -2.90226e-014 4.37326e-014
rhumerus -29.403 -5.76182 -73.7834
rradius 47.5495
rwrist 2.41607
rhand -29.0314 -689.276
rfingers 7.12502
rthumb -2.38208 0.757452
lclavicle -2.90226e-014 4.37326e-014
lhumerus -216.393 187.99 262.335
lradius 83.0469
lwrist -343.899
lhand -27.362 44.0765
lfingers 7.12502
lthumb -0.76976 794.055
rfemur -9.65322 5.91219 13.8306
rtibia 34.6932
rfoot -26.1111 -14.4425
rtoes -23.6879
lfemur -23.3964 -0.453498 3.57126
ltibia 35.3512
lfoot -2.50147 27.0954
ltoes -9.69918
1563
root 13.3431 15.3979 1.59513 -173.351 -169.948 -181.313
lowerback -0.900703 0.477316 -1.88211
upperback 1.65603 0.591504 4.05195
thorax 2.14886 0.225341 5.26527
lowerneck -8.87202 -6.35515 -8.17985
upperneck 29.3875 -7.22343 -1.03382
head 11.2899 -4.31026 0.117789
rclavicle -1.66979e-014 5.56597e-015
rhumerus -28.8129 -4.91766 -74.4883
rradius 47.5626
rwrist 2.05628
rhand -28.6396 -689.888
rfingers 7.12502
rthumb -2.00364 0.141357
lclavicle -1.66979e-014 5.56597e-015
lhumerus -216.941 186.173 262.534
lradius 79.5711
lwrist -342.004
lhand -28.3322 45.261
lfingers 7.12502
lthumb -1.70673 795.234
rfemur -9.59378 5.96975 15.1221
rtibia 34.1041
rfoot -26.5448 -15.1074
rtoes -22.6415
lfemur -25.0826 0.930141 3.92946
ltibia 35.9488
lfoot -1.27776 26.7865
ltoes -0.832608
1564
root 13.1536 15.4236 1.50386 -173.031 -170.873 -181.512
lowerback -1.11279 0.335439 -1.59212
upperback 1.58939 0.395632 4.11013
thorax 2.22131 0.131271 5.15725
lowerneck -8.91022 -6.37821 -7.97008
upperneck 29.7442 -7.32496 -0.93737
head 11.4316 -4.32549 0.096731
rclavicle -3.18055e-015 -3.97569e-015
rhumerus -28.7125 -4.19773 -75.0668
rradius 47.9407
rwrist 1.69621
rhand -28.2155 -690.568
rfingers 7.12502
rthumb -1.594 -0.541473
lclavicle -3.18055e-015 -3.97569e-015
lhumerus -217.421 184.617 262.64
lradius 75.8153
lwrist -340.15
lhand -28.5046 46.2471
lfingers 7.12502
lthumb -1.87329 796.219
rfemur -9.56218 6.14463 16.3655
rtibia 33.5018
rfoot -27.7569 -15.7739
rtoes -18.4284
lfemur -26.7984 2.25405 3.94589
ltibia 36.6993
lfoot -0.557314 26.2424
ltoes 3.06968
1565
root 12.9811 15.4451 1.40803 -172.785 -171.985 -181.541
lowerback -1.10031 0.142113 -1.37685
upperback 1.46653 0.136471 4.0979
thorax 2.11388 0.0090081 5.01277
lowerneck -8.84015 -6.36135 -7.6611
upperneck 29.8584 -7.36927 -0.936396
head 11.4456 -4.31217 0.0419239
rclavicle -2.70347e-014 3.4191e-014
rhumerus -28.9584 -3.64554 -75.5386
rradius 48.58
rwrist 1.22057
rhand -27.8254 -691.241
rfingers 7.12502
rthumb -1.21731 -1.21694
lclavicle -2.70347e-014 3.4191e-014
lhumerus -217.736 183.564 262.696
lradius 71.8579
lwrist -338.301
lhand -27.7944 47.8139
lfingers 7.12502
lthumb -1.18734 797.79
rfemur -9.52427 6.24754 17.4062
rtibia 32.9649
rfoot -28.3746 -16.7602
rtoes -16.2439
lfemur -28.5787 3.48077 3.42445
ltibia 37.5902
lfoot -0.451706 24.9401
ltoes 2.85297
1566
root 12.8258 15.4613 1.31385 -172.65 -173.005 -181.402
lowerback -1.07318 0.00745722 -1.25507
upperback 1.46644 -0.0441095 4.02896
thorax 2.11555 -0.0787225 4.86572
lowerneck -8.87664 -6.32196 -7.43905
upperneck 29.8196 -7.36242 -0.888182
head 11.4262 -4.27609 0.0246022
rclavicle 0 2.22639e-014
rhumerus -29.2408 -3.33293 -75.8324
rradius 49.2657
rwrist 0.669425
rhand -27.3853 -691.947
rfingers 7.12502
rthumb -0.792217 -1.92554
lclavicle 0 2.22639e-014
lhumerus -217.727 183.009 262.853
lradius 67.6489
lwrist -336.694
lhand -26.3698 48.3846
lfingers 7.12502
lthumb 0.18855 798.364
rfemur -9.52066 6.42867 18.1969
rtibia 32.5751
rfoot -28.7829 -17.8283
rtoes -15.575
lfemur -30.1867 4.35194 2.43768
ltibia 38.5885
lfoot -1.502 23.8682
ltoes 3.54026
1567
root 12.6859 15.4742 1.22699 -172.524 -173.761 -181.17
lowerback -1.11085 -0.0644196 -1.20131
upperback 1.51055 -0.14184 3.99321
thorax 2.19104 -0.128147 4.7952
lowerneck -8.99237 -6.42866 -7.66837
upperneck 29.9157 -7.56161 -0.522516
head 11.5226 -4.345 0.162569
rclavicle 2.5842e-015 3.18055e-015
rhumerus -29.5926 -2.9233 -75.9114
rradius 49.923
rwrist -0.113691
rhand -26.8961 -692.53
rfingers 7.12502
rthumb -0.319785 -2.50933
lclavicle 2.5842e-015 3.18055e-015
lhumerus -217.45 182.487 263.143
lradius 62.9181
lwrist -335.998
lhand -24.8137 47.2491
lfingers 7.12502
lthumb 1.69149 797.222
rfemur -9.67939 6.80447 18.7637
rtibia 32.386
rfoot -29.0911 -18.7927
rtoes -15.0109
lfemur -31.6162 4.98503 1.10041
ltibia 39.6611
lfoot -2.26881 23.2687
ltoes 1.76963
1568
root 12.5555 15.4871 1.14708 -172.408 -174.382 -180.729
lowerback -1.15483 -0.0947276 -1.29034
upperback 1.52228 -0.177943 3.86381
thorax 2.23085 -0.147027 4.70953
lowerneck -8.96037 -6.53225 -7.97377
upperneck 29.854 -7.75434 -0.145487
head 11.5336 -4.4174 0.326699
rclavicle 1.43125e-014 3.81667e-014
rhumerus -29.9989 -2.58805 -75.909
rradius 50.2867
rwrist -1.04226
rhand -26.5579 -692.756
rfingers 7.12502
rthumb 0.00694473 -2.7358
lclavicle 1.43125e-014 3.81667e-014
lhumerus -216.92 181.991 263.398
lradius 57.6681
lwrist -336.201
lhand -23.6421 46.4923
lfingers 7.12502
lthumb 2.82296 796.453
rfemur -9.94296 7.19237 19.0046
rtibia 32.434
rfoot -29.4371 -19.5245
rtoes -13.8755
lfemur -32.9183 5.54834 -0.700652
ltibia 40.8051
lfoot -3.20907 22.6413
ltoes -1.49464
1569
root 12.4341 15.498 1.07416 -172.296 -174.851 -180.123
lowerback -1.15256 -0.0626496 -1.43918
upperback 1.48861 -0.124636 3.58324
thorax 2.18903 -0.118695 4.50236
lowerneck -9.04142 -6.60262 -8.04075
upperneck 29.8325 -7.89857 0.0939776
head 11.562 -4.45799 0.403293
rclavicle -7.55382e-015 -1.03368e-014
rhumerus -30.4954 -2.46475 -75.9379
rradius 50.2879
rwrist -1.67999
rhand -26.6634 -692.823
rfingers 7.12502
rthumb -0.0949832 -2.80282
lclavicle -7.55382e-015 -1.03368e-014
lhumerus -216.313 181.565 263.47
lradius 52.1422
lwrist -337.166
lhand -22.3888 46.3868
lfingers 7.12502
lthumb 4.03335 796.328
rfemur -10.3187 7.52357 18.9701
rtibia 32.7347
rfoot -30.0747 -19.857
rtoes -12.3475
lfemur -34.0748 6.06284 -2.86139
ltibia 42.0401
lfoot -5.15703 21.8415
ltoes -3.18183
1570
root 12.3245 15.5027 1.00223 -172.003 -175.161 -179.756
lowerback -1.19471 0.0129006 -1.34992
upperback 1.36723 -0.0188666 3.38722
thorax 2.07741 -0.0589793 4.24973
lowerneck -9.11684 -6.6014 -7.99453
upperneck 29.7597 -7.9182 0.180609
head 11.5502 -4.44816 0.423741
rclavicle -6.75868e-015 8.74653e-015
rhumerus -31.0795 -2.25805 -75.9048
rradius 50.0867
rwrist -2.0933
rhand -26.9445 -693.093
rfingers 7.12502
rthumb -0.366497 -3.07241
lclavicle -6.75868e-015 8.74653e-015
lhumerus -215.8 180.94 263.493
lradius 46.6329
lwrist -338.772
lhand -20.961 46.3334
lfingers 7.12502
lthumb 5.41204 796.244
rfemur -11.0821 7.88306 19.0733
rtibia 33.2486
rfoot -30.8086 -19.9765
rtoes -11.0962
lfemur -35.3524 6.71627 -4.95834
ltibia 43.3875
lfoot -6.68939 20.7624
ltoes -6.79567
1571
root 12.2245 15.5004 0.926819 -171.596 -175.441 -179.579
lowerback -1.27251 0.104566 -1.11936
upperback 1.2252 0.103309 3.29122
thorax 1.96467 0.00992186 4.02197
lowerneck -9.15776 -6.60052 -8.05047
upperneck 29.5756 -7.92866 0.305599
head 11.4954 -4.43998 0.479215
rclavicle -2.98177e-015 1.11319e-014
rhumerus -31.5286 -2.06936 -75.7395
rradius 49.5546
rwrist -2.38682
rhand -26.9359 -693.533
rfingers 7.12502
rthumb -0.358166 -3.51288
lclavicle -2.98177e-015 1.11319e-014
lhumerus -215.295 180.135 263.491
lradius 41.3207
lwrist -340.563
lhand -19.6424 46.7061
lfingers 7.12502
lthumb 6.68506 796.581
rfemur -12.1164 8.26783 19.3149
rtibia 33.9025
rfoot -31.3175 -20.305
rtoes -10.5436
lfemur -36.7816 7.39089 -6.98901
ltibia 44.8421
lfoot -8.53596 19.5373
ltoes -7.67648
1572
root 12.1293 15.4922 0.852695 -171.28 -175.685 -179.284
lowerback -1.2894 0.173366 -1.05324
upperback 1.14648 0.198008 3.15531
thorax 1.88606 0.0613595 3.84551
lowerneck -9.28703 -6.57966 -8.09896
upperneck 29.3407 -7.9129 0.464254
head 11.4382 -4.41419 0.546641
rclavicle -5.56597e-015 -5.1684e-014
rhumerus -31.7136 -1.98025 -75.5434
rradius 48.5899
rwrist -2.30558
rhand -26.6379 -693.938
rfingers 7.12502
rthumb -0.0703117 -3.9182
lclavicle -5.56597e-015 -5.1684e-014
lhumerus -214.876 179.2 263.357
lradius 36.4709
lwrist -342.164
lhand -18.9701 47.7613
lfingers 7.12502
lthumb 7.33404 797.614
rfemur -13.0573 8.49918 19.3843
rtibia 34.6407
rfoot -31.6804 -20.54
rtoes -10.2271
lfemur -38.103 7.85266 -9.18087
ltibia 46.3301
lfoot -10.5057 18.0527
ltoes -6.35661
